# xmcd CD database file
#
# Track frame offsets:
#	150
#	37287
#	72130
#	95642
#	116697
#	149782
#	174182
#
# Disc length: 2615 seconds
#
# Revision: 0
# Processed by: cddbd v1.5.2PL0 Copyright (c) Steve Scherf et al.
# Submitted via: CDex 1.70beta3
#
DISCID=680a3507
DTITLE=Baby Face Willette - Stop And Listen
DYEAR=1961
DGENRE=Jazz
TTITLE0=Willow Weep For Me
TTITLE1=Chances Are Few
TTITLE2=Jumpin' Jupiter
TTITLE3=Stop And Listen
TTITLE4=At Last
TTITLE5=Soul Walk
TTITLE6=Work Song
EXTD=YEAR: 1961
EXTT0=
EXTT1=
EXTT2=
EXTT3=
EXTT4=
EXTT5=
EXTT6=
PLAYORDER=
